<?xml version="1.0" ?><svg enable-background="new 0 0 920 920" id="Layer_1" version="1.1" viewBox="0 0 920 920" xml:space="preserve" xmlns="http://www.w3.org/2000/svg" xmlns:xlink="http://www.w3.org/1999/xlink"><g><g><path d="M816.1,386.1c-0.8,0-1.5-0.2-2.3-0.5c-5.8-3-8.7-8.4-7.9-14.8c1-7.6,8.6-18.8,15.8-20.4    c4.6-1,7.4,0.8,8.7,1.9c4,3.6,3.5,9.8,3.3,11c-0.3,2.7-2.8,4.7-5.5,4.4c-2.7-0.3-4.7-2.8-4.4-5.5c0.1-0.6,0-1.4-0.1-2    c-2.1,0.9-7.5,7-7.9,12.2c-0.1,2,0.6,3.2,2.5,4.2c2.5,1.3,3.4,4.3,2.2,6.7C819.7,385.1,817.9,386.1,816.1,386.1z" fill="#58595B"/><path d="M772.4,380.7c-0.5,0-1,0-1.5-0.1c-2.8-0.2-4.8-2.6-4.6-5.4c0.2-2.8,2.6-4.8,5.4-4.6    c5.1,0.4,9.1-4.8,9.8-5.8c1.6-2.3,4.7-2.8,7-1.2c2.3,1.6,2.8,4.7,1.2,7C788,373,781.9,380.7,772.4,380.7z" fill="#58595B"/><path d="M797.2,377.4c-3.4,0-10.3-0.5-14.1-3.8c-3-2.7-3.5-6.6-1.2-10c0.1-0.9,0.1-2.6,0.1-4.1    c0-9.5,0-27.2,15.2-41.4c23.5-22,49.9-10.6,60.5-1.5c2.1,1.8,2.3,5,0.6,7c-1.8,2.1-4.9,2.3-7,0.6c-1-0.9-24.4-20.1-47.2,1.2    C792,336.8,792,351,792,359.6c0,3.1,0,5.4-0.6,7.3c4.3,1.1,13.4,0.7,16.1-2.1c1.9-2,5.1-2.1,7.1-0.1c2,1.9,2.1,5.1,0.1,7.1    c-4.5,4.6-12.1,5.6-16.2,5.7C798.2,377.4,797.7,377.4,797.2,377.4z" fill="#58595B"/><path d="M879.6,386.4c-1.2,0-2.4-0.4-3.4-1.3c-2-1.9-2.2-5-0.3-7.1c0.6-0.6,13.9-15.9,1-36.6    c-10-16-29.5-16.7-29.7-16.7c-2.8-0.1-4.9-2.4-4.9-5.1c0.1-2.8,2.4-4.9,5.1-4.9c1,0,25.1,0.9,37.9,21.4    c8.8,14.2,7.9,26.6,5.5,34.5c-2.6,8.6-7.4,13.9-7.6,14.1C882.3,385.8,880.9,386.4,879.6,386.4z" fill="#58595B"/><path d="M879.6,386.4c-0.7,0-1.4-0.1-2-0.4c-2.5-1.1-3.7-4.1-2.5-6.6c1.5-3.5-2.1-10.8-6.6-17.2    c-1.5,2.8-3.4,6-5.9,9c-6.8,8.1-18,12.4-18.5,12.5c-2,0.7-4.2,0.1-5.6-1.5L825,365.9c-1.8-2.1-1.5-5.3,0.7-7    c2.1-1.8,5.3-1.5,7,0.7l11,13.3c3.1-1.5,8-4.3,11.1-8.1c5.2-6.2,7.5-13.6,7.5-13.7c0.5-1.7,1.9-3.1,3.7-3.5    c1.8-0.4,3.6,0.2,4.8,1.5c3.2,3.5,19,21.8,13.4,34.4C883.3,385.3,881.5,386.4,879.6,386.4z" fill="#58595B"/><path d="M814.5,439.1c-2.7,0-5.3-0.8-7.9-2.8c-12-9.6-19.2-31.2-10.2-46.8c1.4-2.4,4.4-3.2,6.8-1.8    c2.4,1.4,3.2,4.4,1.8,6.8c-6.7,11.6,0.2,27.9,7.8,34c3.9,3.2,14.4-7.3,17.9-10.7c2.6-2.6,3.8-3.7,5.3-4.4c3-1.2,6.1,0,8.7,1.3    c0.8-1.9,1.9-4.4,3-7.3c1.5-3.9,3.9-5.4,6.8-7.1c1.8-1.1,4-2.5,7.3-5.1c5.9-4.7,11.5-18.5,13.2-23.4c0.9-2.6,3.7-4,6.4-3.1    c2.6,0.9,4,3.8,3.1,6.4c-0.7,2.1-7.3,20.6-16.4,27.9c-3.7,3-6.4,4.6-8.3,5.8c-2.4,1.4-2.4,1.5-2.6,2.2    c-4.6,11.8-5.8,12.9-6.6,13.7c-3,2.7-6.6,0.8-8.9-0.4c-0.5-0.3-1.4-0.7-2-1c-0.5,0.5-1.1,1.1-1.6,1.6    C832.8,429.9,823.5,439.1,814.5,439.1z" fill="#58595B"/><path d="M786.4,429.6c-1.3,0-2.6-0.5-3.6-1.6c-1.9-2-1.8-5.2,0.2-7.1c2-1.9,9.2-8.2,15.4-7.5    c2.5,0.3,4.6,1.6,6,3.7c1.5,2.3,0.9,5.4-1.4,6.9c-2,1.3-4.5,1-6.2-0.5c-1.6,0.5-4.7,2.6-6.8,4.7    C788.9,429.1,787.6,429.6,786.4,429.6z" fill="#58595B"/></g><path d="M66.7,614.5c-6.2,0-13.4-3.3-21.5-9.7C11,577.7,1.3,487.1,6.2,473c2.7-7.8,9.8-17,27.9-17   c2.2,0,4.5,0.1,7,0.4c5.3,0.6,9,2.6,12.5,4.4c4.2,2.2,8.2,4.3,15.8,4.3c3.2,0,7-0.4,11.2-1.2c9.5-1.8,20-7.1,32.2-13.2   c20.2-10.1,45.3-22.6,80.9-27.8c7.2-1.1,14.1-1.6,21.1-1.6c10.7,0,19.7,1.2,28.4,2.3c7.4,1,14.4,1.9,21.6,1.9   c7.6,0,14.5-1,21.8-3.3c5.6-1.7,12.5-5.7,20.5-10.4c10.4-6,22.2-12.8,35.4-17.2c17.1-5.6,34.8-8.6,49.1-11   c10.5-1.8,20.4-3.4,23.4-5.3c4.8-2.9,9.8-6.8,15.1-11.1c16.4-13.1,36.9-29.3,70.2-29.8c44.9-0.7,55.7,19.3,56.1,20.2   c0.3,0.6,0.5,1.3,0.5,2.1l4.4,100.9c0.1,1.9-0.9,3.7-2.6,4.6c-1.9,1-47.5,25.5-140,31.1c-13.2,0.8-25,1.7-36.3,2.5   c-20.7,1.6-38.7,2.9-55.5,2.9c-12,0-22.8-0.7-32.9-2.2c-11.5-1.6-21.4-3.1-33-3.1c-16.3,0-35.3,2.9-63.7,9.7   c-25.7,6.1-52.9,6.4-74.7,6.6c-25.6,0.3-47.8,0.5-49.5,10.3c-4.3,24.8,0.2,46.5,6.1,56.2c4.8,7.8,5.2,19.7,1.1,27.1   C77.3,611.7,72.5,614.5,66.7,614.5z M34.1,466c-14.8,0-17.5,7.8-18.4,10.3c-1.5,4.3-1,27.1,5.2,55.5c7,31.9,17.9,55.1,30.6,65.2   c8.2,6.5,13.1,7.5,15.3,7.5s3.6-0.9,4.7-2.9c2.4-4.3,2-12.4-0.9-17c-7.1-11.6-12.2-35.6-7.5-63.1c3.1-18,27.9-18.2,59.2-18.6   c22.4-0.2,47.8-0.5,72.4-6.4c29.2-7,49-9.9,66.1-9.9c12.3,0,23.1,1.5,34.4,3.2c9.7,1.4,20,2.1,31.5,2.1c16.4,0,34.2-1.3,54.7-2.9   c11.4-0.9,23.3-1.8,36.5-2.6c77.8-4.7,122.1-23.3,133.1-28.5l-4.2-96.3c-3.7-5.2-16.9-14-44.5-14c-0.7,0-1.4,0-2,0   c-29.9,0.4-48,14.9-64.1,27.6c-5.6,4.4-10.8,8.6-16.2,11.8c-4.7,2.8-14,4.4-26.9,6.5c-14,2.3-31.3,5.3-47.7,10.6   c-12.2,4-23.5,10.6-33.5,16.3c-8.5,4.9-15.9,9.2-22.6,11.3c-8.2,2.5-16,3.7-24.7,3.7c-7.8,0-15.1-0.9-22.8-1.9   c-8.4-1.1-17.1-2.2-27.2-2.2c-6.6,0-13,0.5-19.7,1.5c-34,5-58.3,17.1-77.8,26.9c-12.9,6.4-24,12-34.8,14c-4.8,0.9-9.1,1.4-13,1.4   c-10,0-15.8-3-20.4-5.5c-3.1-1.6-5.6-2.9-9-3.3C37.9,466.1,35.9,466,34.1,466z" fill="#58595B"/><path d="M850.6,573.3c-0.9,0-1.7-0.2-2.6-0.5c-23-8.7-67.9-7-68.3-7c-2.6,0.1-4.8-1.7-5.2-4.3   c-0.1-1-3.3-24.3,5.1-76c6.4-38.9,1.8-67.6-3.2-84.7c-8.7-30.2-21.7-35.9-42.1-41.7c-17.3-5-57.9-16.5-120.4-8.2   c-43.5,5.8-63.3,12.3-63.5,12.3c-2.6,0.9-5.4-0.5-6.3-3.2s0.5-5.4,3.2-6.3c0.8-0.3,20.7-6.8,65.3-12.8   c64.6-8.6,106.6,3.4,124.5,8.5c21.6,6.2,38.9,13.7,49,48.6c5.3,18.2,10.1,48.4,3.5,89.1c-6.1,37.6-5.9,59.7-5.4,68.5   c12.4-0.2,45.9,0,66.5,7.4c1.1-0.7,2.9-2.4,4.4-3.8c7.1-6.6,19-17.6,37.7-14.3c2.7,0.5,4.5,3.1,4.1,5.8c-0.5,2.7-3.1,4.5-5.8,4.1   c-13.9-2.4-22.7,5.8-29.2,11.8C858,570.1,854.5,573.3,850.6,573.3z" fill="#58595B"/><path d="M719.3,481c-0.1,0-0.2,0-0.3,0c-11.6-0.8-21.2-3.2-32.3-6.1c-12.5-3.2-28.1-7.2-52.4-10.2   c-30.9-3.9-49.7-3.5-60.1-2.5c-11.4,1.1-15.4,3.2-15.4,3.2l0.1-0.1l-5.1-8.6c1.8-1,18.9-9.9,81.8-1.9c24.9,3.2,40.8,7.2,53.6,10.5   c11.1,2.8,19.9,5.1,30.6,5.8c2.8,0.2,4.8,2.6,4.6,5.3C724.1,479,721.9,481,719.3,481z" fill="#58595B"/><path d="M66.4,533.2c-1,0-2-0.3-2.8-0.9c-14.6-10.1-18.3-54.4-18.9-63.1c-0.2-2.8,1.9-5.1,4.7-5.3   c2.7-0.2,5.1,1.9,5.3,4.7c1.3,19.8,6.7,50.2,14.6,55.6c2.3,1.6,2.9,4.7,1.3,7C69.6,532.5,68,533.2,66.4,533.2z" fill="#58595B"/><path d="M349.8,498.9c-1.4,0-2.8-0.6-3.8-1.7c-15.8-18.4-17-85.1-17.1-92.6c0-2.8,2.2-5,4.9-5.1c0,0,0,0,0.1,0   c2.7,0,5,2.2,5,4.9c0,0.2,0.2,18,2.3,37.8c3.5,33.7,9.3,44.8,12.4,48.5c1.8,2.1,1.6,5.3-0.5,7C352.1,498.6,351,498.9,349.8,498.9z" fill="#58595B"/><path d="M821.1,610.2c-2.1,0-4,0-5.8-0.1c-14-0.4-28.1-1.4-39.3-2.2c-11.8-0.9-22.1-1.6-26-1.1   c-6.3,0.7-12.2-4.8-18.5-17.2c-4.4-8.6-8.7-20.5-12-32.5c-6.6-24.2-5.8-56-5.2-81.5c0.4-15.8,0.7-30.7-1.1-35.1   c-1.1-2.5,0.1-5.5,2.6-6.6c2.5-1.1,5.5,0.1,6.6,2.6c2.6,6.1,2.5,18.3,1.9,39.3c-0.6,24.9-1.4,55.9,4.8,78.7   c6.7,24.9,16,41.3,19.8,42.3c4.9-0.5,14.5,0.2,27.7,1.1c11.2,0.8,25.1,1.8,38.9,2.2c23.8,0.7,70.4-3.4,77.6-6.1   c0.6-0.5,1.2-1,2-1.2c0.3-0.1,8.8-3.1,9.7-13.2c0.4-4.7-2.9-14.8-5-16.5c-1.8-0.6-8.5,0.5-14.2,2.3c-2.6,0.8-5.4-0.6-6.3-3.2   c-0.8-2.6,0.6-5.4,3.2-6.3c4.8-1.5,16.5-4.7,22.2-1.5c3.2,1.8,5.8,5.9,7.9,12.3c1.3,4,2.5,9.7,2.1,13.8   c-1.3,14-11.4,19.7-15.2,21.3c-2.1,1.7-5.9,2.6-11.8,3.6c-5.7,0.9-13.4,1.8-22.5,2.6C849.6,609.4,833,610.2,821.1,610.2z" fill="#58595B"/><path d="M781.2,504c-0.5,0-1.1-0.1-1.6-0.3c-25.8-8.6-58.7,0-59,0.1c-2.7,0.7-5.4-0.9-6.1-3.5   c-0.7-2.7,0.9-5.4,3.5-6.1c1.5-0.4,36.1-9.5,64.7,0.1c2.6,0.9,4,3.7,3.2,6.3C785.2,502.6,783.3,504,781.2,504z" fill="#58595B"/></g></svg>